<svg width="520" height="520" viewBox="0 0 520 520" fill="none" xmlns="http://www.w3.org/2000/svg">
<path d="M513.333 486.667L486.667 513.333" stroke="#1A1B1E" stroke-width="4" stroke-linecap="round" stroke-linejoin="round"/>
<path d="M486.667 486.667L513.333 513.333" stroke="#1A1B1E" stroke-width="4" stroke-linecap="round" stroke-linejoin="round"/>
<path d="M393.333 366.667L366.667 393.333" stroke="#1A1B1E" stroke-width="4" stroke-linecap="round" stroke-linejoin="round"/>
<path d="M366.667 366.667L393.333 393.333" stroke="#1A1B1E" stroke-width="4" stroke-linecap="round" stroke-linejoin="round"/>
<path d="M440 455C448.284 455 455 448.284 455 440C455 431.716 448.284 425 440 425C431.716 425 425 431.716 425 440C425 448.284 431.716 455 440 455Z" stroke="#1A1B1E" stroke-width="4" stroke-linecap="round" stroke-linejoin="round"/>
<path d="M393.333 426.667L366.667 453.333" stroke="#1A1B1E" stroke-width="4" stroke-linecap="round" stroke-linejoin="round"/>
<path d="M366.667 426.667L393.333 453.333" stroke="#1A1B1E" stroke-width="4" stroke-linecap="round" stroke-linejoin="round"/>
<path d="M380 515C388.284 515 395 508.284 395 500C395 491.716 388.284 485 380 485C371.716 485 365 491.716 365 500C365 508.284 371.716 515 380 515Z" stroke="#1A1B1E" stroke-width="4" stroke-linecap="round" stroke-linejoin="round"/>
<path d="M513.333 246.667L486.667 273.333" stroke="#1A1B1E" stroke-width="4" stroke-linecap="round" stroke-linejoin="round"/>
<path d="M486.667 246.667L513.333 273.333" stroke="#1A1B1E" stroke-width="4" stroke-linecap="round" stroke-linejoin="round"/>
<path d="M393.333 306.667L366.667 333.333" stroke="#1A1B1E" stroke-width="4" stroke-linecap="round" stroke-linejoin="round"/>
<path d="M366.667 306.667L393.333 333.333" stroke="#1A1B1E" stroke-width="4" stroke-linecap="round" stroke-linejoin="round"/>
<path d="M380 275C388.284 275 395 268.284 395 260C395 251.716 388.284 245 380 245C371.716 245 365 251.716 365 260C365 268.284 371.716 275 380 275Z" stroke="#1A1B1E" stroke-width="4" stroke-linecap="round" stroke-linejoin="round"/>
<path d="M453.333 246.667L426.667 273.333" stroke="#1A1B1E" stroke-width="4" stroke-linecap="round" stroke-linejoin="round"/>
<path d="M426.667 246.667L453.333 273.333" stroke="#1A1B1E" stroke-width="4" stroke-linecap="round" stroke-linejoin="round"/>
<path d="M500 215C508.284 215 515 208.284 515 200C515 191.716 508.284 185 500 185C491.716 185 485 191.716 485 200C485 208.284 491.716 215 500 215Z" stroke="#1A1B1E" stroke-width="4" stroke-linecap="round" stroke-linejoin="round"/>
<path d="M500 335C508.284 335 515 328.284 515 320C515 311.716 508.284 305 500 305C491.716 305 485 311.716 485 320C485 328.284 491.716 335 500 335Z" stroke="#1A1B1E" stroke-width="4" stroke-linecap="round" stroke-linejoin="round"/>
<path d="M500 95C508.284 95 515 88.2843 515 80C515 71.7157 508.284 65 500 65C491.716 65 485 71.7157 485 80C485 88.2843 491.716 95 500 95Z" stroke="#1A1B1E" stroke-width="4" stroke-linecap="round" stroke-linejoin="round"/>
<path d="M500 95C508.284 95 515 88.2843 515 80C515 71.7157 508.284 65 500 65C491.716 65 485 71.7157 485 80C485 88.2843 491.716 95 500 95Z" stroke="#1A1B1E" stroke-width="4" stroke-linecap="round" stroke-linejoin="round"/>
<path d="M380 151C388.284 151 395 144.284 395 136C395 127.716 388.284 121 380 121C371.716 121 365 127.716 365 136C365 144.284 371.716 151 380 151Z" stroke="#1A1B1E" stroke-width="4" stroke-linecap="round" stroke-linejoin="round"/>
<path d="M453.333 66.6667L426.667 93.3333" stroke="#1A1B1E" stroke-width="4" stroke-linecap="round" stroke-linejoin="round"/>
<path d="M426.667 66.6667L453.333 93.3333" stroke="#1A1B1E" stroke-width="4" stroke-linecap="round" stroke-linejoin="round"/>
<path d="M500 155C508.284 155 515 148.284 515 140C515 131.716 508.284 125 500 125C491.716 125 485 131.716 485 140C485 148.284 491.716 155 500 155Z" stroke="#1A1B1E" stroke-width="4" stroke-linecap="round" stroke-linejoin="round"/>
<path d="M393.333 66.6667L366.667 93.3333" stroke="#1A1B1E" stroke-width="4" stroke-linecap="round" stroke-linejoin="round"/>
<path d="M366.667 66.6667L393.333 93.3333" stroke="#1A1B1E" stroke-width="4" stroke-linecap="round" stroke-linejoin="round"/>
<path d="M393.333 6.66666L366.667 33.3333" stroke="#1A1B1E" stroke-width="4" stroke-linecap="round" stroke-linejoin="round"/>
<path d="M366.667 6.66666L393.333 33.3333" stroke="#1A1B1E" stroke-width="4" stroke-linecap="round" stroke-linejoin="round"/>
<path d="M333.333 486.667L306.667 513.333" stroke="#1A1B1E" stroke-width="4" stroke-linecap="round" stroke-linejoin="round"/>
<path d="M306.667 486.667L333.333 513.333" stroke="#1A1B1E" stroke-width="4" stroke-linecap="round" stroke-linejoin="round"/>
<path d="M333.333 426.667L306.667 453.333" stroke="#1A1B1E" stroke-width="4" stroke-linecap="round" stroke-linejoin="round"/>
<path d="M306.667 426.667L333.333 453.333" stroke="#1A1B1E" stroke-width="4" stroke-linecap="round" stroke-linejoin="round"/>
<path d="M260 455C268.284 455 275 448.284 275 440C275 431.716 268.284 425 260 425C251.716 425 245 431.716 245 440C245 448.284 251.716 455 260 455Z" stroke="#1A1B1E" stroke-width="4" stroke-linecap="round" stroke-linejoin="round"/>
<path d="M333.333 366.667L306.667 393.333" stroke="#1A1B1E" stroke-width="4" stroke-linecap="round" stroke-linejoin="round"/>
<path d="M306.667 366.667L333.333 393.333" stroke="#1A1B1E" stroke-width="4" stroke-linecap="round" stroke-linejoin="round"/>
<path d="M200 515C208.284 515 215 508.284 215 500C215 491.716 208.284 485 200 485C191.716 485 185 491.716 185 500C185 508.284 191.716 515 200 515Z" stroke="#1A1B1E" stroke-width="4" stroke-linecap="round" stroke-linejoin="round"/>
<path d="M333.333 306.667L306.667 333.333" stroke="#1A1B1E" stroke-width="4" stroke-linecap="round" stroke-linejoin="round"/>
<path d="M306.667 306.667L333.333 333.333" stroke="#1A1B1E" stroke-width="4" stroke-linecap="round" stroke-linejoin="round"/>
<path d="M273.333 306.667L246.667 333.333" stroke="#1A1B1E" stroke-width="4" stroke-linecap="round" stroke-linejoin="round"/>
<path d="M246.667 306.667L273.333 333.333" stroke="#1A1B1E" stroke-width="4" stroke-linecap="round" stroke-linejoin="round"/>
<path d="M320 275C328.284 275 335 268.284 335 260C335 251.716 328.284 245 320 245C311.716 245 305 251.716 305 260C305 268.284 311.716 275 320 275Z" stroke="#1A1B1E" stroke-width="4" stroke-linecap="round" stroke-linejoin="round"/>
<path d="M320 275C328.284 275 335 268.284 335 260C335 251.716 328.284 245 320 245C311.716 245 305 251.716 305 260C305 268.284 311.716 275 320 275Z" stroke="#1A1B1E" stroke-width="4" stroke-linecap="round" stroke-linejoin="round"/>
<path d="M260 275C268.284 275 275 268.284 275 260C275 251.716 268.284 245 260 245C251.716 245 245 251.716 245 260C245 268.284 251.716 275 260 275Z" stroke="#1A1B1E" stroke-width="4" stroke-linecap="round" stroke-linejoin="round"/>
<path d="M260 215C268.284 215 275 208.284 275 200C275 191.716 268.284 185 260 185C251.716 185 245 191.716 245 200C245 208.284 251.716 215 260 215Z" stroke="#1A1B1E" stroke-width="4" stroke-linecap="round" stroke-linejoin="round"/>
<path d="M333.333 186.667L306.667 213.333" stroke="#1A1B1E" stroke-width="4" stroke-linecap="round" stroke-linejoin="round"/>
<path d="M306.667 186.667L333.333 213.333" stroke="#1A1B1E" stroke-width="4" stroke-linecap="round" stroke-linejoin="round"/>
<path d="M200 335C208.284 335 215 328.284 215 320C215 311.716 208.284 305 200 305C191.716 305 185 311.716 185 320C185 328.284 191.716 335 200 335Z" stroke="#1A1B1E" stroke-width="4" stroke-linecap="round" stroke-linejoin="round"/>
<path d="M213.333 246.667L186.667 273.333" stroke="#1A1B1E" stroke-width="4" stroke-linecap="round" stroke-linejoin="round"/>
<path d="M186.667 246.667L213.333 273.333" stroke="#1A1B1E" stroke-width="4" stroke-linecap="round" stroke-linejoin="round"/>
<path d="M333.333 126.667L306.667 153.333" stroke="#1A1B1E" stroke-width="4" stroke-linecap="round" stroke-linejoin="round"/>
<path d="M306.667 126.667L333.333 153.333" stroke="#1A1B1E" stroke-width="4" stroke-linecap="round" stroke-linejoin="round"/>
<path d="M320 95C328.284 95 335 88.2843 335 80C335 71.7157 328.284 65 320 65C311.716 65 305 71.7157 305 80C305 88.2843 311.716 95 320 95Z" stroke="#1A1B1E" stroke-width="4" stroke-linecap="round" stroke-linejoin="round"/>
<path d="M320 95C328.284 95 335 88.2843 335 80C335 71.7157 328.284 65 320 65C311.716 65 305 71.7157 305 80C305 88.2843 311.716 95 320 95Z" stroke="#1A1B1E" stroke-width="4" stroke-linecap="round" stroke-linejoin="round"/>
<path d="M200 35C208.284 35 215 28.2843 215 20C215 11.7157 208.284 5 200 5C191.716 5 185 11.7157 185 20C185 28.2843 191.716 35 200 35Z" stroke="#1A1B1E" stroke-width="4" stroke-linecap="round" stroke-linejoin="round"/>
<path d="M273.333 66.6667L246.667 93.3333" stroke="#1A1B1E" stroke-width="4" stroke-linecap="round" stroke-linejoin="round"/>
<path d="M246.667 66.6667L273.333 93.3333" stroke="#1A1B1E" stroke-width="4" stroke-linecap="round" stroke-linejoin="round"/>
<path d="M260 155C268.284 155 275 148.284 275 140C275 131.716 268.284 125 260 125C251.716 125 245 131.716 245 140C245 148.284 251.716 155 260 155Z" stroke="#1A1B1E" stroke-width="4" stroke-linecap="round" stroke-linejoin="round"/>
<path d="M213.333 66.6667L186.667 93.3333" stroke="#1A1B1E" stroke-width="4" stroke-linecap="round" stroke-linejoin="round"/>
<path d="M186.667 66.6667L213.333 93.3333" stroke="#1A1B1E" stroke-width="4" stroke-linecap="round" stroke-linejoin="round"/>
<path d="M33.3333 486.667L6.66666 513.333" stroke="#1A1B1E" stroke-width="4" stroke-linecap="round" stroke-linejoin="round"/>
<path d="M6.66666 486.667L33.3333 513.333" stroke="#1A1B1E" stroke-width="4" stroke-linecap="round" stroke-linejoin="round"/>
<path d="M140 515C148.284 515 155 508.284 155 500C155 491.716 148.284 485 140 485C131.716 485 125 491.716 125 500C125 508.284 131.716 515 140 515Z" stroke="#1A1B1E" stroke-width="4" stroke-linecap="round" stroke-linejoin="round"/>
<path d="M140 395C148.284 395 155 388.284 155 380C155 371.716 148.284 365 140 365C131.716 365 125 371.716 125 380C125 388.284 131.716 395 140 395Z" stroke="#1A1B1E" stroke-width="4" stroke-linecap="round" stroke-linejoin="round"/>
<path d="M93.3333 426.667L66.6667 453.333" stroke="#1A1B1E" stroke-width="4" stroke-linecap="round" stroke-linejoin="round"/>
<path d="M66.6667 426.667L93.3333 453.333" stroke="#1A1B1E" stroke-width="4" stroke-linecap="round" stroke-linejoin="round"/>
<path d="M33.3333 366.667L6.66666 393.333" stroke="#1A1B1E" stroke-width="4" stroke-linecap="round" stroke-linejoin="round"/>
<path d="M6.66666 366.667L33.3333 393.333" stroke="#1A1B1E" stroke-width="4" stroke-linecap="round" stroke-linejoin="round"/>
<path d="M153.333 306.667L126.667 333.333" stroke="#1A1B1E" stroke-width="4" stroke-linecap="round" stroke-linejoin="round"/>
<path d="M126.667 306.667L153.333 333.333" stroke="#1A1B1E" stroke-width="4" stroke-linecap="round" stroke-linejoin="round"/>
<path d="M20 335C28.2843 335 35 328.284 35 320C35 311.716 28.2843 305 20 305C11.7157 305 5 311.716 5 320C5 328.284 11.7157 335 20 335Z" stroke="#1A1B1E" stroke-width="4" stroke-linecap="round" stroke-linejoin="round"/>
<path d="M93.3333 246.667L66.6667 273.333" stroke="#1A1B1E" stroke-width="4" stroke-linecap="round" stroke-linejoin="round"/>
<path d="M66.6667 246.667L93.3333 273.333" stroke="#1A1B1E" stroke-width="4" stroke-linecap="round" stroke-linejoin="round"/>
<path d="M153.333 186.667L126.667 213.333" stroke="#1A1B1E" stroke-width="4" stroke-linecap="round" stroke-linejoin="round"/>
<path d="M126.667 186.667L153.333 213.333" stroke="#1A1B1E" stroke-width="4" stroke-linecap="round" stroke-linejoin="round"/>
<path d="M20 215C28.2843 215 35 208.284 35 200C35 191.716 28.2843 185 20 185C11.7157 185 5 191.716 5 200C5 208.284 11.7157 215 20 215Z" stroke="#1A1B1E" stroke-width="4" stroke-linecap="round" stroke-linejoin="round"/>
<path d="M153.333 126.667L126.667 153.333" stroke="#1A1B1E" stroke-width="4" stroke-linecap="round" stroke-linejoin="round"/>
<path d="M126.667 126.667L153.333 153.333" stroke="#1A1B1E" stroke-width="4" stroke-linecap="round" stroke-linejoin="round"/>
<path d="M33.3333 122.667L6.66666 149.333" stroke="#1A1B1E" stroke-width="4" stroke-linecap="round" stroke-linejoin="round"/>
<path d="M6.66666 122.667L33.3333 149.333" stroke="#1A1B1E" stroke-width="4" stroke-linecap="round" stroke-linejoin="round"/>
<path d="M20 95C28.2843 95 35 88.2843 35 80C35 71.7157 28.2843 65 20 65C11.7157 65 5 71.7157 5 80C5 88.2843 11.7157 95 20 95Z" stroke="#1A1B1E" stroke-width="4" stroke-linecap="round" stroke-linejoin="round"/>
<path d="M80 95C88.2843 95 95 88.2843 95 80C95 71.7157 88.2843 65 80 65C71.7157 65 65 71.7157 65 80C65 88.2843 71.7157 95 80 95Z" stroke="#1A1B1E" stroke-width="4" stroke-linecap="round" stroke-linejoin="round"/>
<path d="M140 35C148.284 35 155 28.2843 155 20C155 11.7157 148.284 5 140 5C131.716 5 125 11.7157 125 20C125 28.2843 131.716 35 140 35Z" stroke="#1A1B1E" stroke-width="4" stroke-linecap="round" stroke-linejoin="round"/>
<path d="M33.3333 6.66666L6.66666 33.3333" stroke="#1A1B1E" stroke-width="4" stroke-linecap="round" stroke-linejoin="round"/>
<path d="M6.66666 6.66666L33.3333 33.3333" stroke="#1A1B1E" stroke-width="4" stroke-linecap="round" stroke-linejoin="round"/>
</svg>
